<?xml version="1.0" encoding="UTF-8"?>
<svg xmlns="http://www.w3.org/2000/svg" xmlns:xlink="http://www.w3.org/1999/xlink" width="300px" height="px" viewBox="0 0 300 239" version="1.1">
<defs>
<radialGradient id="radial0" gradientUnits="userSpaceOnUse" cx="0.4252" cy="0.784" fx="0.4252" fy="0.784" r="1.0192" gradientTransform="matrix(267.832031,0,0,152.414063,31.667969,26.304688)">
<stop offset="0" style="stop-color:rgb(18.823529%,23.137255%,41.176471%);stop-opacity:1;"/>
<stop offset="1" style="stop-color:rgb(69.411765%,74.509804%,94.117647%);stop-opacity:1;"/>
</radialGradient>
</defs>
<g id="surface1">
<path style=" stroke:none;fill-rule:nonzero;fill:rgb(100%,93.333333%,93.72549%);fill-opacity:1;" d="M 26.558594 27.609375 C 28.257812 84.835938 25.703125 142.039062 25.710938 199.308594 C 25.800781 213.605469 27.363281 213.707031 27.402344 221.175781 C 27.425781 223.023438 28.429688 218.097656 27.402344 217.933594 C 24.777344 217.484375 20.109375 221.761719 19.363281 218.90625 C 16.441406 207.589844 18.304688 194.628906 18.09375 182.300781 C 18.304688 147.699219 18.75 112.734375 19.363281 77.984375 C 19.71875 57.699219 17.496094 35.992188 20.632812 15.460938 C 21.421875 10.398438 26.28125 13.4375 26.558594 27.609375 Z M 26.558594 27.609375 "/>
<path style=" stroke:none;fill-rule:nonzero;fill:rgb(100%,93.333333%,93.72549%);fill-opacity:1;" d="M 29.945312 215.917969 C 104.546875 217.476562 180.558594 216.714844 255.765625 217.613281 C 274.542969 217.839844 271.449219 217.40625 279.367188 219.308594 C 280.925781 219.710938 283.589844 222.992188 280.15625 223.546875 C 266.414062 225.765625 252.476562 225.09375 238.453125 225.242188 C 192.863281 225.730469 146.539062 225.746094 101.546875 225.5 C 76.652344 225.359375 51.601562 226.851562 26.796875 224.652344 C 20.585938 224.101562 20.699219 221.160156 19.714844 217.867188 C 19.285156 215.828125 21.628906 213.128906 23.648438 212.78125 C 26.484375 212.300781 11.292969 215.527344 29.945312 215.917969 Z M 29.945312 215.917969 "/>
<path style=" stroke:none;fill-rule:nonzero;fill:rgb(100%,93.333333%,93.72549%);fill-opacity:1;" d="M 22.699219 4.527344 C 24.496094 4.734375 25.613281 5.558594 26.839844 6.835938 C 31.742188 11.953125 38.566406 16.515625 40.640625 23.347656 C 41.382812 25.949219 35.972656 27.972656 33.050781 27.636719 C 28.9375 27.167969 26.84375 20.953125 22.699219 21.035156 C 18.332031 21.125 16.101562 27.339844 11.796875 27.636719 C 8.9375 28.128906 3.863281 25.695312 4.757812 23.015625 C 7.09375 16.019531 13.992188 11.351562 19.25 5.847656 C 20.472656 4.667969 21.464844 4.382812 22.699219 4.527344 Z M 22.699219 4.527344 "/>
<path style=" stroke:none;fill-rule:nonzero;fill:rgb(100%,93.333333%,93.72549%);fill-opacity:1;" d="M 289.96875 222.09375 C 289.734375 223.890625 288.910156 224.992188 287.648438 226.195312 C 282.589844 231 278.03125 237.742188 271.359375 239.675781 C 268.816406 240.367188 266.949219 234.90625 267.328125 231.984375 C 267.863281 227.875 273.933594 225.90625 273.933594 221.753906 C 273.925781 217.378906 267.929688 215.019531 267.71875 210.699219 C 267.292969 207.828125 269.75 202.796875 272.335938 203.746094 C 279.089844 206.230469 283.5 213.234375 288.75 218.613281 C 289.871094 219.863281 290.128906 220.859375 289.96875 222.09375 Z M 289.96875 222.09375 "/>
<path style=" stroke:none;fill-rule:nonzero;fill:url(#radial0);" d="M 197.09375 26.304688 C 215.589844 24.851562 246.769531 35.339844 252.164062 39.546875 C 256.238281 42.800781 212.835938 45.675781 217.40625 44.109375 C 224.402344 42.050781 260.097656 27.867188 280.878906 30.542969 C 290.832031 31.832031 303.039062 44.882812 299.5 54.28125 C 292.253906 73.445312 258.457031 93.089844 253.796875 97.519531 C 250.761719 101.132812 279.53125 73.238281 280.035156 74.628906 C 280.527344 76.03125 266.027344 96.992188 259.722656 108.542969 C 253.035156 120.773438 251.007812 137.699219 239.410156 146.695312 C 227.726562 156.113281 211.242188 158.980469 195.402344 159.410156 C 170.386719 160.082031 146.234375 153.007812 120.921875 149.238281 C 115.65625 148.292969 133.097656 146.625 129.386719 149.238281 C 114.734375 159.636719 102.898438 175.164062 83.683594 178.0625 C 67.464844 180.542969 51.789062 176.824219 36.289062 164.5 C 26.621094 155.226562 33.078125 136.4375 37.984375 123.804688 C 42.078125 113.285156 54.773438 109.539062 60.835938 100.914062 C 65.984375 93.125 66.230469 82.628906 70.992188 75.476562 C 79.667969 62.414062 88.667969 48.660156 101.398438 39.546875 C 110.132812 33.316406 122.875 30.484375 134.464844 31.390625 C 152.851562 32.925781 182.128906 42.816406 188.628906 46.652344 C 193.015625 49.273438 156.816406 50.972656 158.164062 46.652344 C 159.609375 42.027344 182.183594 27.375 197.09375 26.304688 Z M 197.09375 26.304688 "/>
<path style=" stroke:none;fill-rule:nonzero;fill:rgb(100%,99.215686%,98.823529%);fill-opacity:1;" d="M 62.527344 104.304688 C 63.226562 104.304688 63.863281 104.613281 64.320312 105.109375 C 64.78125 105.609375 65.066406 106.300781 65.066406 107.058594 C 65.066406 107.820312 64.78125 108.507812 64.320312 109.007812 C 63.863281 109.507812 63.226562 109.816406 62.527344 109.816406 C 61.828125 109.816406 61.191406 109.507812 60.734375 109.007812 C 60.273438 108.507812 59.988281 107.820312 59.988281 107.058594 C 59.988281 106.300781 60.273438 105.609375 60.734375 105.109375 C 61.191406 104.613281 61.828125 104.304688 62.527344 104.304688 Z M 62.527344 104.304688 "/>
<path style=" stroke:none;fill-rule:nonzero;fill:rgb(100%,99.215686%,98.823529%);fill-opacity:1;" d="M 91.515625 72.085938 C 92.390625 72.085938 93.183594 72.464844 93.757812 73.082031 C 94.332031 73.695312 94.6875 74.542969 94.6875 75.476562 C 94.6875 76.414062 94.332031 77.261719 93.757812 77.875 C 93.183594 78.488281 92.390625 78.871094 91.515625 78.871094 C 90.636719 78.871094 89.84375 78.488281 89.269531 77.875 C 88.695312 77.261719 88.339844 76.414062 88.339844 75.476562 C 88.339844 74.542969 88.695312 73.695312 89.269531 73.082031 C 89.84375 72.464844 90.636719 72.085938 91.515625 72.085938 Z M 91.515625 72.085938 "/>
<path style=" stroke:none;fill-rule:nonzero;fill:rgb(100%,99.215686%,98.823529%);fill-opacity:1;" d="M 85.167969 94.128906 C 85.691406 94.128906 86.167969 94.320312 86.511719 94.625 C 86.855469 94.933594 87.070312 95.359375 87.070312 95.824219 C 87.070312 96.292969 86.855469 96.71875 86.511719 97.023438 C 86.167969 97.332031 85.691406 97.519531 85.167969 97.519531 C 84.640625 97.519531 84.164062 97.332031 83.820312 97.023438 C 83.476562 96.71875 83.261719 96.292969 83.261719 95.824219 C 83.261719 95.359375 83.476562 94.933594 83.820312 94.625 C 84.164062 94.320312 84.640625 94.128906 85.167969 94.128906 Z M 85.167969 94.128906 "/>
<path style=" stroke:none;fill-rule:nonzero;fill:rgb(100%,99.215686%,98.823529%);fill-opacity:1;" d="M 127.90625 70.390625 C 129.132812 70.390625 130.242188 70.867188 131.046875 71.632812 C 131.851562 72.402344 132.347656 73.460938 132.347656 74.628906 C 132.347656 75.800781 131.851562 76.859375 131.046875 77.625 C 130.242188 78.394531 129.132812 78.871094 127.90625 78.871094 C 126.679688 78.871094 125.570312 78.394531 124.765625 77.625 C 123.960938 76.859375 123.460938 75.800781 123.460938 74.628906 C 123.460938 73.460938 123.960938 72.402344 124.765625 71.632812 C 125.570312 70.867188 126.679688 70.390625 127.90625 70.390625 Z M 127.90625 70.390625 "/>
<path style=" stroke:none;fill-rule:nonzero;fill:rgb(100%,99.215686%,98.823529%);fill-opacity:1;" d="M 158.066406 48.195312 C 157.414062 48.441406 156.710938 48.378906 156.105469 48.070312 C 155.5 47.769531 154.992188 47.222656 154.722656 46.511719 C 154.457031 45.800781 154.480469 45.054688 154.738281 44.425781 C 154.992188 43.796875 155.476562 43.285156 156.132812 43.035156 C 156.789062 42.789062 157.492188 42.855469 158.097656 43.160156 C 158.703125 43.464844 159.210938 44.011719 159.476562 44.722656 C 159.746094 45.433594 159.71875 46.179688 159.464844 46.808594 C 159.210938 47.4375 158.722656 47.949219 158.066406 48.195312 Z M 158.066406 48.195312 "/>
<path style=" stroke:none;fill-rule:nonzero;fill:rgb(100%,99.215686%,98.823529%);fill-opacity:1;" d="M 142.246094 88.566406 C 141.429688 88.875 140.550781 88.800781 139.800781 88.429688 C 139.046875 88.054688 138.414062 87.386719 138.085938 86.511719 C 137.757812 85.636719 137.792969 84.714844 138.117188 83.9375 C 138.4375 83.164062 139.046875 82.527344 139.867188 82.21875 C 140.683594 81.910156 141.5625 81.984375 142.3125 82.359375 C 143.070312 82.730469 143.699219 83.398438 144.027344 84.273438 C 144.355469 85.152344 144.320312 86.070312 144 86.847656 C 143.675781 87.625 143.066406 88.257812 142.246094 88.566406 Z M 142.246094 88.566406 "/>
<path style=" stroke:none;fill-rule:nonzero;fill:rgb(100%,99.215686%,98.823529%);fill-opacity:1;" d="M 140.449219 65.695312 C 139.957031 65.882812 139.445312 65.871094 139.015625 65.707031 C 138.582031 65.539062 138.234375 65.21875 138.070312 64.78125 C 137.90625 64.34375 137.957031 63.871094 138.171875 63.460938 C 138.386719 63.054688 138.765625 62.707031 139.257812 62.523438 C 139.75 62.335938 140.261719 62.347656 140.691406 62.511719 C 141.121094 62.679688 141.472656 63 141.636719 63.4375 C 141.800781 63.875 141.75 64.347656 141.535156 64.757812 C 141.320312 65.164062 140.941406 65.511719 140.449219 65.695312 Z M 140.449219 65.695312 "/>
<path style=" stroke:none;fill-rule:nonzero;fill:rgb(100%,99.215686%,98.823529%);fill-opacity:1;" d="M 181.011719 71.664062 C 181.480469 71.664062 181.902344 71.851562 182.210938 72.160156 C 182.515625 72.464844 182.707031 72.890625 182.707031 73.359375 C 182.707031 73.828125 182.515625 74.25 182.210938 74.558594 C 181.902344 74.863281 181.480469 75.054688 181.011719 75.054688 C 180.546875 75.054688 180.121094 74.863281 179.816406 74.558594 C 179.511719 74.25 179.320312 73.828125 179.320312 73.359375 C 179.320312 72.890625 179.511719 72.464844 179.816406 72.160156 C 180.121094 71.851562 180.546875 71.664062 181.011719 71.664062 Z M 181.011719 71.664062 "/>
<path style=" stroke:none;fill-rule:nonzero;fill:rgb(100%,99.215686%,98.823529%);fill-opacity:1;" d="M 219.519531 40.292969 C 220.339844 40.292969 221.078125 40.625 221.613281 41.164062 C 222.152344 41.703125 222.484375 42.441406 222.484375 43.261719 C 222.484375 44.082031 222.152344 44.820312 221.613281 45.359375 C 221.078125 45.894531 220.339844 46.230469 219.519531 46.230469 C 218.703125 46.230469 217.964844 45.894531 217.425781 45.359375 C 216.890625 44.820312 216.558594 44.082031 216.558594 43.261719 C 216.558594 42.441406 216.890625 41.703125 217.425781 41.164062 C 217.964844 40.625 218.703125 40.292969 219.519531 40.292969 Z M 219.519531 40.292969 "/>
<path style=" stroke:none;fill-rule:nonzero;fill:rgb(100%,99.215686%,98.823529%);fill-opacity:1;" d="M 233.0625 80.988281 C 233.878906 80.988281 234.621094 81.34375 235.15625 81.921875 C 235.691406 82.496094 236.023438 83.292969 236.023438 84.167969 C 236.023438 85.042969 235.691406 85.839844 235.15625 86.414062 C 234.621094 86.992188 233.878906 87.347656 233.0625 87.347656 C 232.246094 87.347656 231.503906 86.992188 230.96875 86.414062 C 230.433594 85.839844 230.101562 85.042969 230.101562 84.167969 C 230.101562 83.292969 230.433594 82.496094 230.96875 81.921875 C 231.503906 81.34375 232.246094 80.988281 233.0625 80.988281 Z M 233.0625 80.988281 "/>
<path style=" stroke:none;fill-rule:nonzero;fill:rgb(100%,99.215686%,98.823529%);fill-opacity:1;" d="M 253.585938 46.652344 C 254.226562 46.652344 254.808594 46.914062 255.230469 47.335938 C 255.652344 47.757812 255.914062 48.339844 255.914062 48.984375 C 255.914062 49.625 255.652344 50.210938 255.230469 50.632812 C 254.808594 51.054688 254.226562 51.316406 253.585938 51.316406 C 252.945312 51.316406 252.363281 51.054688 251.941406 50.632812 C 251.519531 50.210938 251.257812 49.625 251.257812 48.984375 C 251.257812 48.339844 251.519531 47.757812 251.941406 47.335938 C 252.363281 46.914062 252.945312 46.652344 253.585938 46.652344 Z M 253.585938 46.652344 "/>
<path style=" stroke:none;fill-rule:nonzero;fill:rgb(100%,99.215686%,98.823529%);fill-opacity:1;" d="M 46.871094 145.847656 C 47.921875 145.847656 48.871094 146.226562 49.5625 146.839844 C 50.25 147.453125 50.679688 148.300781 50.679688 149.238281 C 50.679688 150.171875 50.25 151.019531 49.5625 151.636719 C 48.871094 152.25 47.921875 152.628906 46.871094 152.628906 C 45.820312 152.628906 44.867188 152.25 44.175781 151.636719 C 43.488281 151.019531 43.0625 150.171875 43.0625 149.238281 C 43.0625 148.300781 43.488281 147.453125 44.175781 146.839844 C 44.867188 146.226562 45.820312 145.847656 46.871094 145.847656 Z M 46.871094 145.847656 "/>
<path style=" stroke:none;fill-rule:nonzero;fill:rgb(100%,99.215686%,98.823529%);fill-opacity:1;" d="M 73.953125 121.261719 C 74.535156 121.261719 75.066406 121.449219 75.449219 121.757812 C 75.832031 122.0625 76.066406 122.488281 76.066406 122.957031 C 76.066406 123.421875 75.832031 123.847656 75.449219 124.15625 C 75.066406 124.460938 74.535156 124.652344 73.953125 124.652344 C 73.367188 124.652344 72.839844 124.460938 72.457031 124.15625 C 72.074219 123.847656 71.835938 123.421875 71.835938 122.957031 C 71.835938 122.488281 72.074219 122.0625 72.457031 121.757812 C 72.839844 121.449219 73.367188 121.261719 73.953125 121.261719 Z M 73.953125 121.261719 "/>
<path style=" stroke:none;fill-rule:nonzero;fill:rgb(100%,99.215686%,98.823529%);fill-opacity:1;" d="M 198.363281 98.367188 C 198.945312 98.367188 199.476562 98.605469 199.859375 98.988281 C 200.242188 99.375 200.480469 99.902344 200.480469 100.488281 C 200.480469 101.074219 200.242188 101.601562 199.859375 101.988281 C 199.476562 102.371094 198.945312 102.609375 198.363281 102.609375 C 197.777344 102.609375 197.25 102.371094 196.867188 101.988281 C 196.484375 101.601562 196.246094 101.074219 196.246094 100.488281 C 196.246094 99.902344 196.484375 99.375 196.867188 98.988281 C 197.25 98.605469 197.777344 98.367188 198.363281 98.367188 Z M 198.363281 98.367188 "/>
<path style=" stroke:none;fill-rule:nonzero;fill:rgb(96.078431%,85.882353%,97.647059%);fill-opacity:1;" d="M 208.09375 58.523438 C 208.5625 58.523438 208.984375 59.804688 209.292969 61.875 C 209.597656 63.949219 209.789062 66.808594 209.789062 69.96875 C 209.789062 73.125 209.597656 75.988281 209.292969 78.058594 C 208.984375 80.132812 208.5625 81.414062 208.09375 81.414062 C 207.628906 81.414062 207.207031 80.132812 206.898438 78.058594 C 206.59375 75.988281 206.402344 73.125 206.402344 69.96875 C 206.402344 66.808594 206.59375 63.949219 206.898438 61.875 C 207.207031 59.804688 207.628906 58.523438 208.09375 58.523438 Z M 208.09375 58.523438 "/>
<path style=" stroke:none;fill-rule:nonzero;fill:rgb(96.078431%,85.882353%,97.647059%);fill-opacity:1;" d="M 207.671875 67 C 210.355469 67 212.792969 67.140625 214.554688 67.375 C 216.316406 67.605469 217.40625 67.921875 217.40625 68.273438 C 217.40625 68.621094 216.316406 68.941406 214.554688 69.171875 C 212.792969 69.402344 210.355469 69.542969 207.671875 69.542969 C 204.988281 69.542969 202.554688 69.402344 200.792969 69.171875 C 199.03125 68.941406 197.941406 68.621094 197.941406 68.273438 C 197.941406 67.921875 199.03125 67.605469 200.792969 67.375 C 202.554688 67.140625 204.988281 67 207.671875 67 Z M 207.671875 67 "/>
<path style=" stroke:none;fill-rule:nonzero;fill:rgb(96.078431%,85.882353%,97.647059%);fill-opacity:1;" d="M 113.308594 83.109375 C 113.539062 83.109375 113.75 83.867188 113.902344 85.097656 C 114.058594 86.324219 114.152344 88.019531 114.152344 89.890625 C 114.152344 91.761719 114.058594 93.457031 113.902344 94.6875 C 113.75 95.914062 113.539062 96.671875 113.308594 96.671875 C 113.074219 96.671875 112.863281 95.914062 112.710938 94.6875 C 112.554688 93.457031 112.460938 91.761719 112.460938 89.890625 C 112.460938 88.019531 112.554688 86.324219 112.710938 85.097656 C 112.863281 83.867188 113.074219 83.109375 113.308594 83.109375 Z M 113.308594 83.109375 "/>
<path style=" stroke:none;fill-rule:nonzero;fill:rgb(96.078431%,85.882353%,97.647059%);fill-opacity:1;" d="M 113.730469 89.890625 C 115.480469 89.890625 117.066406 90.035156 118.21875 90.265625 C 119.367188 90.496094 120.078125 90.8125 120.078125 91.164062 C 120.078125 91.515625 119.367188 91.832031 118.21875 92.0625 C 117.066406 92.292969 115.480469 92.433594 113.730469 92.433594 C 111.976562 92.433594 110.390625 92.292969 109.242188 92.0625 C 108.09375 91.832031 107.382812 91.515625 107.382812 91.164062 C 107.382812 90.8125 108.09375 90.496094 109.242188 90.265625 C 110.390625 90.035156 111.976562 89.890625 113.730469 89.890625 Z M 113.730469 89.890625 "/>
<path style=" stroke:none;fill-rule:nonzero;fill:rgb(96.078431%,85.882353%,97.647059%);fill-opacity:1;" d="M 51.523438 124.652344 C 51.757812 124.652344 51.96875 125.410156 52.121094 126.636719 C 52.277344 127.867188 52.371094 129.5625 52.371094 131.433594 C 52.371094 133.304688 52.277344 135 52.121094 136.230469 C 51.96875 137.457031 51.757812 138.214844 51.523438 138.214844 C 51.292969 138.214844 51.078125 137.457031 50.925781 136.230469 C 50.773438 135 50.679688 133.304688 50.679688 131.433594 C 50.679688 129.5625 50.773438 127.867188 50.925781 126.636719 C 51.078125 125.410156 51.292969 124.652344 51.523438 124.652344 Z M 51.523438 124.652344 "/>
<path style=" stroke:none;fill-rule:nonzero;fill:rgb(96.078431%,85.882353%,97.647059%);fill-opacity:1;" d="M 51.949219 131.433594 C 53.933594 131.433594 55.730469 131.527344 57.03125 131.683594 C 58.335938 131.835938 59.140625 132.046875 59.140625 132.28125 C 59.140625 132.515625 58.335938 132.726562 57.03125 132.878906 C 55.730469 133.035156 53.933594 133.128906 51.949219 133.128906 C 49.960938 133.128906 48.164062 133.035156 46.863281 132.878906 C 45.558594 132.726562 44.753906 132.515625 44.753906 132.28125 C 44.753906 132.046875 45.558594 131.835938 46.863281 131.683594 C 48.164062 131.527344 49.960938 131.433594 51.949219 131.433594 Z M 51.949219 131.433594 "/>
<path style=" stroke:none;fill-rule:nonzero;fill:rgb(96.078431%,85.882353%,97.647059%);fill-opacity:1;" d="M 210.210938 129.738281 C 210.5625 129.738281 210.878906 130.734375 211.109375 132.347656 C 211.339844 133.957031 211.480469 136.183594 211.480469 138.640625 C 211.480469 141.09375 211.339844 143.320312 211.109375 144.933594 C 210.878906 146.546875 210.5625 147.542969 210.210938 147.542969 C 209.859375 147.542969 209.542969 146.546875 209.3125 144.933594 C 209.085938 143.320312 208.941406 141.09375 208.941406 138.640625 C 208.941406 136.183594 209.085938 133.957031 209.3125 132.347656 C 209.542969 130.734375 209.859375 129.738281 210.210938 129.738281 Z M 210.210938 129.738281 "/>
<path style=" stroke:none;fill-rule:nonzero;fill:rgb(96.078431%,85.882353%,97.647059%);fill-opacity:1;" d="M 210.167969 136.691406 C 212.5625 136.691406 214.730469 136.808594 216.300781 137 C 217.871094 137.191406 218.84375 137.457031 218.84375 137.75 C 218.84375 138.042969 217.871094 138.308594 216.300781 138.5 C 214.730469 138.691406 212.5625 138.808594 210.167969 138.808594 C 207.777344 138.808594 205.605469 138.691406 204.035156 138.5 C 202.464844 138.308594 201.496094 138.042969 201.496094 137.75 C 201.496094 137.457031 202.464844 137.191406 204.035156 137 C 205.605469 136.808594 207.777344 136.691406 210.167969 136.691406 Z M 210.167969 136.691406 "/>
<path style=" stroke:none;fill-rule:nonzero;fill:rgb(71.764706%,84.313725%,96.470588%);fill-opacity:1;" d="M 192.816406 75.484375 C 193.222656 75.484375 193.59375 76.214844 193.859375 77.394531 C 194.125 78.570312 194.292969 80.199219 194.292969 81.992188 C 194.292969 83.789062 194.125 85.414062 193.859375 86.59375 C 193.59375 87.773438 193.222656 88.5 192.816406 88.5 C 192.410156 88.5 192.039062 87.773438 191.769531 86.59375 C 191.503906 85.414062 191.339844 83.789062 191.339844 81.992188 C 191.339844 80.199219 191.503906 78.570312 191.769531 77.394531 C 192.039062 76.214844 192.410156 75.484375 192.816406 75.484375 Z M 192.816406 75.484375 "/>
<path style=" stroke:none;fill-rule:nonzero;fill:rgb(71.764706%,84.313725%,96.470588%);fill-opacity:1;" d="M 192.816406 81.402344 C 194.523438 81.402344 196.074219 81.535156 197.199219 81.75 C 198.320312 81.960938 199.015625 82.257812 199.015625 82.585938 C 199.015625 82.910156 198.320312 83.207031 197.199219 83.421875 C 196.074219 83.636719 194.523438 83.769531 192.816406 83.769531 C 191.105469 83.769531 189.554688 83.636719 188.429688 83.421875 C 187.308594 83.207031 186.613281 82.910156 186.613281 82.585938 C 186.613281 82.257812 187.308594 81.960938 188.429688 81.75 C 189.554688 81.535156 191.105469 81.402344 192.816406 81.402344 Z M 192.816406 81.402344 "/>
<path style=" stroke:none;fill-rule:nonzero;fill:rgb(71.764706%,84.313725%,96.470588%);fill-opacity:1;" d="M 102.460938 96.78125 C 102.703125 96.78125 102.925781 97.246094 103.085938 97.996094 C 103.246094 98.746094 103.347656 99.78125 103.347656 100.925781 C 103.347656 102.066406 103.246094 103.101562 103.085938 103.851562 C 102.925781 104.601562 102.703125 105.066406 102.460938 105.066406 C 102.21875 105.066406 101.996094 104.601562 101.835938 103.851562 C 101.675781 103.101562 101.574219 102.066406 101.574219 100.925781 C 101.574219 99.78125 101.675781 98.746094 101.835938 97.996094 C 101.996094 97.246094 102.21875 96.78125 102.460938 96.78125 Z M 102.460938 96.78125 "/>
<path style=" stroke:none;fill-rule:nonzero;fill:rgb(71.764706%,84.313725%,96.470588%);fill-opacity:1;" d="M 102.164062 99.742188 C 103.304688 99.742188 104.339844 99.839844 105.085938 100 C 105.835938 100.164062 106.300781 100.382812 106.300781 100.628906 C 106.300781 100.871094 105.835938 101.09375 105.085938 101.253906 C 104.339844 101.417969 103.304688 101.515625 102.164062 101.515625 C 101.023438 101.515625 99.992188 101.417969 99.242188 101.253906 C 98.496094 101.09375 98.03125 100.871094 98.03125 100.628906 C 98.03125 100.382812 98.496094 100.164062 99.242188 100 C 99.992188 99.839844 101.023438 99.742188 102.164062 99.742188 Z M 102.164062 99.742188 "/>
<path style=" stroke:none;fill-rule:nonzero;fill:rgb(71.764706%,84.313725%,96.470588%);fill-opacity:1;" d="M 66.140625 131.6875 C 66.46875 131.6875 66.761719 131.785156 66.976562 131.945312 C 67.191406 132.109375 67.324219 132.332031 67.324219 132.574219 C 67.324219 132.816406 67.191406 133.039062 66.976562 133.199219 C 66.761719 133.363281 66.46875 133.460938 66.140625 133.460938 C 65.816406 133.460938 65.519531 133.363281 65.308594 133.199219 C 65.09375 133.039062 64.960938 132.816406 64.960938 132.574219 C 64.960938 132.332031 65.09375 132.109375 65.308594 131.945312 C 65.519531 131.785156 65.816406 131.6875 66.140625 131.6875 Z M 66.140625 131.6875 "/>
<path style=" stroke:none;fill-rule:nonzero;fill:rgb(71.764706%,84.313725%,96.470588%);fill-opacity:1;" d="M 107.480469 118.082031 C 107.804688 118.082031 108.101562 118.210938 108.3125 118.429688 C 108.527344 118.640625 108.660156 118.9375 108.660156 119.261719 C 108.660156 119.589844 108.527344 119.886719 108.3125 120.097656 C 108.101562 120.3125 107.804688 120.445312 107.480469 120.445312 C 107.15625 120.445312 106.859375 120.3125 106.644531 120.097656 C 106.429688 119.886719 106.300781 119.589844 106.300781 119.261719 C 106.300781 118.9375 106.429688 118.640625 106.644531 118.429688 C 106.859375 118.210938 107.15625 118.082031 107.480469 118.082031 Z M 107.480469 118.082031 "/>
<path style=" stroke:none;fill-rule:nonzero;fill:rgb(71.764706%,84.313725%,96.470588%);fill-opacity:1;" d="M 160.335938 91.457031 C 160.742188 91.457031 161.113281 91.625 161.378906 91.890625 C 161.644531 92.160156 161.8125 92.53125 161.8125 92.9375 C 161.8125 93.34375 161.644531 93.714844 161.378906 93.984375 C 161.113281 94.25 160.742188 94.417969 160.335938 94.417969 C 159.929688 94.417969 159.558594 94.25 159.289062 93.984375 C 159.023438 93.714844 158.859375 93.34375 158.859375 92.9375 C 158.859375 92.53125 159.023438 92.160156 159.289062 91.890625 C 159.558594 91.625 159.929688 91.457031 160.335938 91.457031 Z M 160.335938 91.457031 "/>
<path style=" stroke:none;fill-rule:nonzero;fill:rgb(96.078431%,85.882353%,97.647059%);fill-opacity:1;" d="M 244.070312 191.746094 C 247.417969 195.511719 250.171875 199.175781 251.914062 202.054688 C 253.65625 204.929688 254.1875 205.933594 253.691406 207.644531 C 253.359375 208.679688 251.664062 209.453125 250.679688 208.734375 C 246.113281 205.136719 242.714844 200.175781 239.035156 196.242188 C 235.167969 192.109375 230.488281 188.707031 227.386719 183.746094 C 226.839844 182.6875 228.171875 180.667969 229.410156 180.34375 C 231.117188 179.925781 232.09375 180.691406 234.746094 182.753906 C 237.402344 184.820312 240.71875 187.980469 244.070312 191.746094 Z M 244.070312 191.746094 "/>
<path style=" stroke:none;fill-rule:nonzero;fill:rgb(96.078431%,85.882353%,97.647059%);fill-opacity:1;" d="M 239.066406 191.046875 C 235.746094 194.839844 233.023438 198.527344 231.308594 201.421875 C 229.589844 204.3125 229.066406 205.316406 229.574219 207.023438 C 229.917969 208.058594 231.617188 208.816406 232.597656 208.09375 C 237.132812 204.453125 240.492188 199.46875 244.140625 195.5 C 247.96875 191.335938 252.625 187.894531 255.679688 182.910156 C 256.21875 181.847656 254.875 179.839844 253.632812 179.523438 C 251.921875 179.121094 250.949219 179.894531 248.3125 181.980469 C 245.675781 184.066406 242.386719 187.253906 239.066406 191.046875 Z M 239.066406 191.046875 "/>
<path style=" stroke:none;fill-rule:nonzero;fill:rgb(96.078431%,85.882353%,97.647059%);fill-opacity:1;" d="M 51.578125 12.613281 C 52.550781 12.734375 53.007812 12.855469 53.9375 13.957031 C 57.636719 18.34375 61.433594 23.015625 64.414062 28.050781 C 65.160156 29.300781 64.804688 30.542969 64.328125 31.617188 C 64.082031 32.097656 64.105469 33.15625 62.835938 32.144531 C 57.710938 27.832031 52.816406 23.117188 48.347656 18.3125 C 47.226562 17.113281 47.503906 16.667969 47.625 15.695312 C 47.746094 14.722656 48.25 13.890625 48.964844 13.335938 C 49.679688 12.777344 50.609375 12.492188 51.578125 12.613281 Z M 51.578125 12.613281 "/>
<path style=" stroke:none;fill-rule:nonzero;fill:rgb(96.078431%,85.882353%,97.647059%);fill-opacity:1;" d="M 74.1875 13.375 C 73.214844 13.484375 72.753906 13.597656 71.8125 14.6875 C 68.058594 19.03125 64.207031 23.652344 61.160156 28.652344 C 60.398438 29.890625 60.742188 31.140625 61.203125 32.21875 C 61.445312 32.703125 61.410156 33.757812 62.691406 32.765625 C 67.867188 28.515625 72.820312 23.863281 77.347656 19.113281 C 78.484375 17.925781 78.210938 17.480469 78.101562 16.503906 C 77.992188 15.53125 77.5 14.695312 76.789062 14.128906 C 76.082031 13.558594 75.15625 13.265625 74.1875 13.375 Z M 74.1875 13.375 "/>
<path style=" stroke:none;fill-rule:nonzero;fill:rgb(96.078431%,85.882353%,97.647059%);fill-opacity:1;" d="M 61.847656 26.261719 C 62.601562 26.316406 63.648438 26.359375 63.828125 27.042969 C 64.523438 30.226562 64.160156 33.5625 64.195312 36.648438 C 64.238281 40.507812 64.453125 44.40625 64.019531 48.242188 C 63.84375 49.195312 63.125 48.1875 62.722656 48.195312 C 61.511719 48.109375 59.402344 48.769531 59.074219 47.710938 C 58 44.109375 58.722656 40.085938 58.765625 36.453125 C 58.804688 33.339844 58.445312 30.140625 59.335938 27.121094 C 59.597656 26.328125 60.96875 26.210938 61.847656 26.261719 Z M 61.847656 26.261719 "/>
</g>
</svg>
