<?xml version="1.0" encoding="UTF-8"?>
<svg xmlns="http://www.w3.org/2000/svg" xmlns:xlink="http://www.w3.org/1999/xlink" width="300px" height="px" viewBox="0 0 300 234" version="1.1">
<defs>
<linearGradient id="linear0" gradientUnits="userSpaceOnUse" x1="0" y1="0" x2="1" y2="1" gradientTransform="matrix(157.3125,0,0,101.09375,75.277344,26.15625)">
<stop offset="0" style="stop-color:rgb(69.411765%,84.705882%,96.470588%);stop-opacity:1;"/>
<stop offset="1" style="stop-color:rgb(96.078431%,83.921569%,98.039216%);stop-opacity:1;"/>
</linearGradient>
</defs>
<g id="surface1">
<path style=" stroke:none;fill-rule:nonzero;fill:rgb(69.411765%,74.509804%,94.117647%);fill-opacity:1;" d="M 161.191406 106.554688 C 189.832031 106.554688 212.179688 110.132812 234.582031 120.984375 C 243.335938 125.246094 250.613281 137.277344 248.089844 146.558594 C 240.550781 173.949219 227.992188 199.695312 209.640625 220.417969 C 202.0625 228.878906 187.429688 228.226562 175.800781 229.648438 C 134.914062 231.316406 93.78125 230.941406 52.757812 229.648438 C 37.191406 229.160156 19.394531 231.460938 6.617188 221.957031 C 0.152344 216.191406 2.492188 201.613281 8.15625 194.261719 C 30.15625 165.730469 57.347656 138.4375 87.800781 120.984375 C 109.414062 108.601562 132.546875 106.554688 161.191406 106.554688 Z M 161.191406 106.554688 "/>
<path style="fill-rule:nonzero;fill:rgb(92.941176%,91.372549%,100%);fill-opacity:1;stroke-width:2;stroke-linecap:round;stroke-linejoin:miter;stroke:rgb(92.941176%,91.372549%,100%);stroke-opacity:1;stroke-miterlimit:4;" d="M 288.999711 242.499448 C 297.297262 248.101217 311.138241 238.991947 319.000762 244.999781 C 323.674132 248.441736 316.243442 256.510266 313.500516 262.000129 C 313.265408 263.333426 312.566482 263.275874 311.000695 263.499689 C 305.180574 264.348587 299.461214 264.85377 293.999353 264.999249 C 279.134775 265.350959 264.071874 265.937674 250.000585 264.999249 C 246.477165 264.767441 243.321601 265.429294 246.499556 262.000129 C 259.212977 248.285065 272.91801 230.635654 288.999711 223.000365 C 294.167288 220.885314 283.889713 239.033513 288.999711 242.499448 Z M 288.999711 242.499448 " transform="matrix(2.442362,0,0,2.443424,-565.677966,-452.103261)"/>
<path style=" stroke:none;fill-rule:nonzero;fill:rgb(48.235294%,65.098039%,93.72549%);fill-opacity:1;" d="M 155.308594 114.527344 C 179.863281 114.527344 198.640625 116.742188 218.230469 121.960938 C 229.917969 125.097656 242.730469 128.847656 246.503906 137.53125 C 249.285156 143.941406 243.710938 152.425781 231.695312 152.746094 C 183.90625 156.75 135.542969 153.371094 87.605469 149.03125 C 75.621094 147.945312 68.851562 146.371094 66.300781 139.300781 C 64.066406 132.519531 73.824219 128.160156 80.894531 121.605469 C 83.230469 121.738281 85.683594 123.246094 92.386719 121.960938 C 112.738281 118.5 130.753906 114.527344 155.308594 114.527344 Z M 155.308594 114.527344 "/>
<path style=" stroke:none;fill-rule:nonzero;fill:rgb(28.627451%,32.156863%,62.745098%);fill-opacity:1;" d="M 90.214844 171.628906 C 97.8125 174.390625 104.792969 172.460938 111.410156 169.796875 C 115.96875 167.960938 117.945312 157.3125 121.148438 158.191406 C 124.347656 159.078125 126.660156 169.121094 124.585938 174.070312 C 122.402344 179.34375 115.894531 180.558594 110.835938 181.402344 C 103.855469 182.574219 96.269531 181.117188 89.070312 180.792969 C 83.441406 180.601562 76.726562 180.785156 77.609375 174.683594 C 75.457031 170.34375 80.632812 162.007812 86.539062 159.261719 C 89.65625 157.960938 86.367188 170.160156 90.214844 171.628906 Z M 90.214844 171.628906 "/>
<path style=" stroke:none;fill-rule:nonzero;fill:rgb(28.627451%,32.156863%,62.745098%);fill-opacity:1;" d="M 77.75 7.644531 C 124.898438 1.242188 173.511719 1.8125 220.328125 4.796875 C 232.007812 5.558594 244.964844 8.457031 248.011719 18.644531 C 255.710938 55.121094 250.953125 94.082031 249.550781 131.738281 C 249.199219 141.152344 246.496094 140.664062 242.398438 142.355469 C 235.167969 144.914062 229.726562 143.050781 218.789062 143.28125 C 175.035156 144.195312 131.046875 146.539062 87.289062 144.820312 C 76.355469 144.386719 68.460938 143.035156 64.21875 135.585938 C 57.554688 124.753906 59.136719 110.222656 58.835938 97.117188 C 58.296875 73.554688 56.839844 48.496094 61.832031 24.339844 C 63.476562 17.289062 66.152344 9.246094 77.75 7.644531 Z M 77.75 7.644531 "/>
<path style=" stroke:none;fill-rule:nonzero;fill:url(#linear0);" d="M 97.234375 27.617188 C 136.570312 25.21875 176.195312 26.15625 215.585938 27.539062 C 225.4375 27.886719 225.578125 29.261719 228.660156 33.15625 C 231.644531 36.488281 231.542969 41.128906 231.738281 46.773438 C 232.5 69.3125 233.511719 92.136719 230.96875 114.476562 C 230.308594 120.171875 227.679688 123.527344 221.738281 124.480469 C 199.65625 128.171875 176.519531 126.914062 153.914062 127.25 C 134.835938 127.535156 116.503906 127.171875 98.234375 126.019531 C 92.082031 125.730469 85.925781 125.648438 80.777344 122.941406 C 78.136719 121.5 77.5625 116.851562 77.011719 113.09375 C 75.777344 106.148438 75.261719 98.488281 75.472656 91.167969 C 76 72.714844 73.175781 53.671875 79.242188 36.542969 C 81.273438 30.023438 87.394531 28.21875 97.234375 27.617188 Z M 97.234375 27.617188 "/>
<path style=" stroke:none;fill-rule:nonzero;fill:rgb(100%,93.333333%,93.72549%);fill-opacity:1;" d="M 108.308594 44.464844 C 112.671875 44.339844 120.617188 48.273438 121 49.46875 C 121.050781 50.597656 112.441406 48.40625 109.464844 50.621094 C 106.113281 53.121094 103.9375 57.453125 103.695312 61.777344 C 103.457031 66.238281 105.429688 71.164062 109.078125 74.085938 C 112.40625 76.753906 121.949219 74.667969 121.628906 76.640625 C 121.261719 78.792969 113.507812 82.164062 108.308594 82.164062 C 103.109375 82.164062 98.402344 80.050781 94.988281 76.640625 C 91.582031 73.226562 89.46875 68.515625 89.46875 63.316406 C 89.46875 58.113281 91.582031 53.402344 94.988281 49.992188 C 98.402344 46.578125 103.511719 44.609375 108.308594 44.464844 Z M 108.308594 44.464844 "/>
<path style=" stroke:none;fill-rule:nonzero;fill:rgb(100%,93.333333%,93.72549%);fill-opacity:1;" d="M 278.320312 47.777344 C 278.71875 46.699219 277.761719 45.550781 278.078125 46.632812 C 279.808594 50.957031 281.039062 55.472656 282.835938 59.710938 C 283.285156 60.761719 283.746094 61.03125 284.765625 61.460938 C 288.738281 63.121094 293.027344 63.613281 297.117188 65.316406 C 298.136719 65.746094 297.457031 65.980469 296.511719 66.460938 C 292.738281 68.382812 288.222656 69.292969 284.765625 72.007812 C 283.339844 72.945312 283.261719 75.019531 282.65625 76.828125 C 281.675781 79.746094 281.289062 82.742188 280.125 85.75 C 279.835938 86.5 279.847656 86.820312 279.222656 85.75 C 276.71875 81.457031 276.269531 76.0625 272.898438 72.789062 C 269.152344 69.15625 263.390625 68.800781 259.039062 66.160156 C 257.953125 65.5 259.183594 66.292969 260.246094 65.859375 C 264.492188 64.113281 269.898438 63.910156 273.257812 60.675781 C 276.441406 57.363281 276.714844 52.101562 278.320312 47.777344 Z M 278.320312 47.777344 "/>
<path style=" stroke:none;fill-rule:nonzero;fill:rgb(100%,93.333333%,93.72549%);fill-opacity:1;" d="M 34.535156 98.789062 C 36.222656 95.996094 36.449219 89.246094 38.175781 89.6875 C 40.21875 90.207031 39.457031 97.902344 41.960938 100.972656 C 43.867188 103.308594 47.710938 103.441406 50.691406 104.613281 C 51.636719 105.019531 54.621094 104.988281 53.75 105.707031 C 50.75 108.125 45.5625 107.972656 42.542969 110.800781 C 40.339844 112.9375 40.3125 116.539062 39.195312 119.539062 C 38.886719 120.359375 39.140625 122.875 38.539062 122.089844 C 36.136719 118.945312 36.1875 114.164062 33.371094 111.386719 C 30.253906 108.308594 22.695312 108.050781 21.433594 105.707031 C 20.730469 104.125 27.066406 104.746094 29.441406 103.519531 C 31.5 102.460938 33.375 100.695312 34.535156 98.789062 Z M 34.535156 98.789062 "/>
<path style=" stroke:none;fill-rule:nonzero;fill:rgb(28.627451%,32.156863%,62.745098%);fill-opacity:1;" d="M 181.941406 191.785156 C 188.214844 190.652344 197.691406 185.238281 203.003906 188.730469 C 206.601562 191.585938 202.222656 199.40625 201.171875 204.003906 C 199.265625 208.027344 197 211.785156 193.808594 214.203125 C 190.632812 216.613281 186.574219 218.050781 181.941406 218.050781 C 177.308594 218.050781 173.109375 216.582031 170.070312 214.203125 C 167.03125 211.824219 165.148438 208.542969 165.148438 204.917969 C 165.148438 201.292969 167.03125 198.011719 170.070312 195.632812 C 173.109375 193.253906 177.835938 192.480469 181.941406 191.785156 Z M 181.941406 191.785156 "/>
<path style=" stroke:none;fill-rule:nonzero;fill:rgb(69.411765%,74.509804%,94.117647%);fill-opacity:1;" d="M 156.246094 5.453125 C 165.199219 5.335938 175.460938 5.214844 184.875 6.835938 C 187.214844 7.246094 188.605469 8.894531 189.023438 10.710938 C 189.5625 13.136719 189.867188 17.285156 187.367188 17.90625 C 177.292969 20.421875 166.40625 19.4375 156.246094 19.289062 C 146.425781 19.148438 136.542969 19.382812 126.789062 17.351562 C 124.597656 16.839844 123.59375 14.296875 123.746094 12.371094 C 123.933594 10.359375 124.5625 8.175781 126.789062 7.667969 C 136.523438 5.632812 146.492188 5.578125 156.246094 5.453125 Z M 156.246094 5.453125 "/>
<path style=" stroke:none;fill-rule:nonzero;fill:rgb(28.627451%,32.156863%,62.745098%);fill-opacity:1;" d="M 173.757812 6.78125 C 175.285156 6.78125 176.667969 7.402344 177.671875 8.402344 C 178.671875 9.40625 179.292969 10.789062 179.292969 12.316406 C 179.292969 13.84375 178.671875 15.226562 177.671875 16.230469 C 176.667969 17.230469 175.285156 17.851562 173.757812 17.851562 C 172.230469 17.851562 170.847656 17.230469 169.847656 16.230469 C 168.847656 15.226562 168.226562 13.84375 168.226562 12.316406 C 168.226562 10.789062 168.847656 9.40625 169.847656 8.402344 C 170.847656 7.402344 172.230469 6.78125 173.757812 6.78125 Z M 173.757812 6.78125 "/>
<path style=" stroke:none;fill-rule:nonzero;fill:rgb(19.215686%,23.529412%,41.568627%);fill-opacity:1;" d="M 173.625 8.222656 C 174.753906 8.222656 175.773438 8.6875 176.511719 9.4375 C 177.25 10.1875 177.707031 11.226562 177.707031 12.371094 C 177.707031 13.519531 177.25 14.554688 176.511719 15.304688 C 175.773438 16.058594 174.753906 16.523438 173.625 16.523438 C 172.5 16.523438 171.480469 16.058594 170.742188 15.304688 C 170.003906 14.554688 169.546875 13.519531 169.546875 12.371094 C 169.546875 11.226562 170.003906 10.1875 170.742188 9.4375 C 171.480469 8.6875 172.5 8.222656 173.625 8.222656 Z M 173.625 8.222656 "/>
<path style=" stroke:none;fill-rule:nonzero;fill:rgb(100%,93.333333%,93.72549%);fill-opacity:1;" d="M 173.976562 7.175781 C 174.191406 7.238281 173.585938 7.652344 173.292969 7.855469 C 172.648438 8.464844 171.863281 8.914062 171.171875 9.601562 C 170.734375 10.039062 170.570312 10.625 170.1875 11.191406 C 169.914062 11.597656 169.863281 12.21875 169.355469 12.402344 C 169.109375 12.578125 168.503906 12.46875 168.445312 12.023438 C 168.4375 11.03125 168.902344 10.003906 169.503906 9.144531 C 170.097656 8.308594 171.234375 7.832031 172.101562 7.441406 C 172.675781 7.183594 173.5 7.035156 173.976562 7.175781 Z M 173.976562 7.175781 "/>
<path style=" stroke:none;fill-rule:nonzero;fill:rgb(62.352941%,68.235294%,93.72549%);fill-opacity:1;" d="M 156.550781 17.9375 C 164.75 17.894531 172.914062 18.15625 181.171875 17.9375 C 183.8125 17.714844 189.359375 16.03125 189.199219 16.609375 C 189.042969 17.1875 183.136719 20.382812 179.710938 20.761719 C 171.417969 21.683594 163.003906 21.15625 154.65625 21.347656 C 147.75 21.15625 140.746094 21.851562 133.925781 20.761719 C 130.917969 20.28125 125.664062 16.75 125.492188 16.421875 C 125.558594 16.222656 130.820312 18.207031 133.445312 18.316406 C 141.128906 18.625 148.582031 17.972656 156.550781 17.9375 Z M 156.550781 17.9375 "/>
<path style=" stroke:none;fill-rule:nonzero;fill:rgb(18.823529%,23.137255%,41.176471%);fill-opacity:1;" d="M 164.960938 141.089844 C 189.753906 141.261719 215 142.851562 239.957031 141.847656 C 246.164062 141.152344 247.804688 136.03125 248.289062 136.542969 C 248.738281 137.035156 248.328125 144.476562 241.09375 145.257812 C 213.855469 148.242188 186.1875 146.289062 158.140625 146.394531 C 132.394531 146.511719 106.117188 148.894531 80.875 145.636719 C 74.570312 144.820312 65.574219 135.972656 65.722656 135.027344 C 65.886719 134.058594 72.972656 139.203125 80.117188 139.574219 C 108.699219 141.054688 136.707031 140.890625 164.960938 141.089844 Z M 164.960938 141.089844 "/>
<path style=" stroke:none;fill-rule:nonzero;fill:rgb(28.627451%,32.156863%,62.745098%);fill-opacity:1;" d="M 137.0625 207.054688 C 145.113281 206.769531 154.589844 204.777344 162.707031 207.667969 C 165.230469 209.039062 162.59375 214.199219 161.484375 216.828125 C 160.230469 219.789062 158.746094 221.972656 154.328125 223.738281 C 149.90625 225.507812 143.800781 226.605469 137.0625 226.605469 C 130.324219 226.605469 124.21875 225.507812 119.796875 223.738281 C 115.375 221.972656 112.636719 219.527344 112.636719 216.828125 C 112.636719 214.132812 115.375 211.6875 119.796875 209.921875 C 124.21875 208.152344 131.144531 207.253906 137.0625 207.054688 Z M 137.0625 207.054688 "/>
<path style=" stroke:none;fill-rule:nonzero;fill:rgb(96.078431%,85.882353%,97.647059%);fill-opacity:1;" d="M 185.3125 181.175781 C 191.375 181.175781 196.90625 181.480469 200.84375 184.953125 C 203.632812 187.371094 200.578125 192.136719 199.707031 195.578125 C 198.476562 200.363281 197.472656 207.597656 192.890625 210.734375 C 188.527344 213.699219 181.230469 213.722656 175.464844 212.25 C 172.421875 210.839844 172.058594 205.949219 169.785156 203.167969 C 167.414062 200.265625 163.347656 197.613281 163.347656 194.0625 C 163.347656 190.507812 165.808594 187.285156 169.785156 184.953125 C 173.761719 182.621094 179.253906 181.175781 185.3125 181.175781 Z M 185.3125 181.175781 "/>
<path style=" stroke:none;fill-rule:nonzero;fill:rgb(92.941176%,75.294118%,97.254902%);fill-opacity:1;" d="M 135.347656 193.324219 C 142.601562 193.324219 149.316406 197.78125 154.757812 201.316406 C 157.800781 203.3125 162.5 206.074219 161.863281 209.621094 C 160.820312 215.144531 156.648438 220.441406 152.015625 222.882812 C 147.40625 224.917969 142.066406 222.027344 137.621094 221.367188 C 131.824219 220.484375 124.875 220.050781 120.484375 217.925781 C 116.097656 215.796875 113.378906 212.859375 113.378906 209.621094 C 113.378906 206.378906 117.492188 203.386719 120.484375 201.316406 C 125.507812 197.871094 129.996094 193.324219 135.347656 193.324219 Z M 135.347656 193.324219 "/>
<path style=" stroke:none;fill-rule:nonzero;fill:rgb(45.098039%,33.72549%,70.588235%);fill-opacity:1;" d="M 88.824219 151.71875 C 97.066406 149.617188 106.128906 152.101562 113.714844 154.019531 C 117.210938 154.90625 121.910156 156.707031 122.535156 160.230469 C 123.503906 165.867188 122.902344 172.847656 119.09375 176.476562 C 114.800781 180.085938 107.875 177.402344 102.949219 177.722656 C 97.3125 178.089844 90.6875 179.691406 86.027344 178.753906 C 81.367188 177.816406 78.058594 175.671875 77.210938 172.546875 C 76.359375 169.417969 79.746094 165.761719 81.675781 162.726562 C 84.144531 158.875 84.871094 152.929688 88.824219 151.71875 Z M 88.824219 151.71875 "/>
<path style=" stroke:none;fill-rule:nonzero;fill:rgb(28.627451%,32.156863%,62.745098%);fill-opacity:1;" d="M 81.863281 201.289062 C 88.210938 203.453125 94.042969 201.9375 99.570312 199.851562 C 103.378906 198.414062 105.027344 190.066406 107.707031 190.753906 C 110.378906 191.453125 112.3125 199.320312 110.578125 203.203125 C 108.753906 207.335938 103.316406 208.289062 99.089844 208.949219 C 93.257812 209.867188 86.917969 208.726562 80.902344 208.46875 C 76.203125 208.324219 70.59375 208.464844 71.332031 203.683594 C 69.535156 200.28125 73.855469 193.746094 78.789062 191.59375 C 81.394531 190.574219 78.648438 200.136719 81.863281 201.289062 Z M 81.863281 201.289062 "/>
<path style=" stroke:none;fill-rule:nonzero;fill:rgb(35.294118%,27.843137%,57.647059%);fill-opacity:1;" d="M 104.585938 154.503906 C 108.507812 155.921875 109.996094 160.8125 112.886719 163.882812 C 114.621094 165.722656 117.238281 167.101562 117.992188 169.507812 C 118.855469 172.253906 120.214844 176.859375 117.691406 177.996094 C 112.457031 180.402344 106.265625 177.652344 100.570312 177.464844 C 96.199219 177.320312 91.386719 179.316406 87.390625 177.617188 C 84.652344 176.242188 82.910156 172.386719 83.148438 169.507812 C 83.558594 164.484375 85.128906 158.503906 89.207031 155.640625 C 93.460938 152.667969 99.835938 152.785156 104.585938 154.503906 Z M 104.585938 154.503906 "/>
<path style=" stroke:none;fill-rule:nonzero;fill:rgb(83.921569%,60.392157%,98.431373%);fill-opacity:1;" d="M 139.960938 195.65625 C 145.527344 196.894531 150.230469 201.46875 154.191406 205.207031 C 156.289062 207.1875 158.855469 209.84375 158.519531 212.707031 C 158.070312 216.449219 154.984375 220.136719 151.703125 222.558594 C 149.597656 224.003906 146.394531 223.640625 143.75 223.316406 C 138.75 222.699219 133.054688 223.054688 128.976562 220.285156 C 126.957031 218.675781 129.035156 215.0625 128.976562 212.707031 C 128.882812 208.542969 126.339844 203.550781 128.597656 200.203125 C 130.820312 196.589844 136.148438 194.8125 139.960938 195.65625 Z M 139.960938 195.65625 "/>
<path style=" stroke:none;fill-rule:nonzero;fill:rgb(92.941176%,75.294118%,97.254902%);fill-opacity:1;" d="M 168.367188 185.421875 C 171.332031 183.089844 176.621094 180.546875 178.972656 182.390625 C 181.171875 184.121094 176.046875 189.984375 178.21875 192.621094 C 182.609375 197.964844 192.101562 197.859375 196.398438 203.613281 C 198.195312 205.886719 195.101562 209.773438 192.84375 211.890625 C 190.6875 213.90625 187.300781 214.21875 184.277344 214.222656 C 180.644531 214.226562 176.015625 214.246094 172.914062 211.949219 C 170.503906 210.152344 170.957031 205.914062 169.125 203.234375 C 167.636719 200.542969 163.335938 199.367188 163.066406 196.035156 C 162.769531 192.097656 165.300781 187.890625 168.367188 185.421875 Z M 168.367188 185.421875 "/>
<path style=" stroke:none;fill-rule:nonzero;fill:rgb(97.647059%,91.372549%,100%);fill-opacity:1;" d="M 131.65625 196.011719 C 132.566406 195.195312 134.359375 192.992188 134.496094 193.964844 C 135.210938 196.402344 133.769531 199.921875 133.359375 202.832031 C 133.136719 204.429688 133.167969 206.417969 132.859375 207.652344 C 132.550781 208.886719 132.125 209.652344 131.65625 209.652344 C 131.183594 209.652344 130.757812 208.886719 130.449219 207.652344 C 130.140625 206.417969 129.949219 204.714844 129.949219 202.832031 C 129.949219 200.949219 130.140625 199.242188 130.449219 198.007812 C 130.757812 196.773438 131.082031 196.523438 131.65625 196.011719 Z M 131.65625 196.011719 "/>
<path style=" stroke:none;fill-rule:nonzero;fill:rgb(97.647059%,91.372549%,100%);fill-opacity:1;" d="M 132.652344 211.34375 C 133.039062 211.34375 133.386719 211.753906 133.640625 212.417969 C 133.894531 213.085938 134.054688 214.003906 134.054688 215.019531 C 134.054688 216.03125 134.042969 216.84375 133.640625 217.617188 C 133.175781 218.5 132.300781 219.40625 131.25 219.90625 C 130.789062 220.164062 129.5625 220.335938 129.507812 219.679688 C 129.40625 218.078125 130.863281 216.5 131.25 215.019531 C 131.464844 214.164062 131.40625 213.085938 131.660156 212.417969 C 131.914062 211.753906 132.265625 211.34375 132.652344 211.34375 Z M 132.652344 211.34375 "/>
<path style=" stroke:none;fill-rule:nonzero;fill:rgb(97.647059%,91.372549%,100%);fill-opacity:1;" d="M 178.21875 185.042969 C 179.15625 185.042969 180.007812 185.808594 180.628906 187.042969 C 181.242188 188.277344 181.039062 190.335938 181.625 191.863281 C 182.464844 193.957031 186.183594 195.742188 185.714844 197.777344 C 185.167969 199.542969 182.207031 200.089844 180.640625 200.050781 C 178.484375 199.679688 176.71875 198.125 175.804688 196.6875 C 175 195.390625 174.808594 193.746094 174.808594 191.863281 C 174.808594 189.984375 175.191406 188.277344 175.804688 187.042969 C 176.425781 185.808594 177.277344 185.042969 178.21875 185.042969 Z M 178.21875 185.042969 "/>
<path style=" stroke:none;fill-rule:nonzero;fill:rgb(97.647059%,91.372549%,100%);fill-opacity:1;" d="M 107.933594 154.46875 C 109.285156 154.695312 110.683594 154.660156 111.953125 155.136719 C 114.261719 156.011719 118.59375 157.746094 118.539062 158.261719 C 118.59375 158.855469 114.152344 158.242188 111.953125 158.351562 C 110.597656 158.417969 109.300781 159.183594 107.933594 159.019531 C 106.980469 158.910156 106.253906 158.113281 105.433594 157.503906 C 104.800781 156.890625 104.183594 156.195312 103.617188 155.378906 C 103.035156 154.691406 101.261719 153.4375 102.101562 153.105469 C 103.789062 152.601562 106.121094 154.152344 107.933594 154.46875 Z M 107.933594 154.46875 "/>
<path style=" stroke:none;fill-rule:nonzero;fill:rgb(92.941176%,91.372549%,100%);fill-opacity:1;" d="M 92.835938 184.695312 C 97.558594 184.464844 102.808594 182.789062 106.980469 184.835938 C 110.066406 186.367188 112.53125 190.0625 112.53125 193.410156 C 112.53125 196.753906 110.40625 199.785156 106.980469 201.980469 C 103.550781 204.175781 98.238281 205.21875 93.59375 205.535156 C 88.03125 205.921875 81.503906 207.5 76.546875 204.777344 C 73.125 202.746094 70.664062 197.730469 70.867188 193.789062 C 72.132812 189.625 76.628906 186.464844 80.203125 184.835938 C 84.035156 183.070312 88.628906 184.464844 92.835938 184.695312 Z M 92.835938 184.695312 "/>
<path style=" stroke:none;fill-rule:nonzero;fill:rgb(83.921569%,83.921569%,100%);fill-opacity:1;" d="M 98.296875 191.714844 C 101.085938 191.914062 103.671875 188.714844 106.480469 189.820312 C 109.179688 190.886719 111.453125 193.992188 111.402344 197.019531 C 111.332031 199.742188 108.210938 201.878906 105.722656 202.929688 C 100.832031 204.988281 95.261719 205.046875 89.964844 205.507812 C 86.898438 205.773438 83.054688 207.203125 80.570312 205.355469 C 77.636719 202.988281 75.269531 198.445312 76.328125 194.898438 C 77.453125 191.125 82 188.585938 85.875 187.925781 C 90.148438 187.40625 94.050781 191.40625 98.296875 191.714844 Z M 98.296875 191.714844 "/>
<path style=" stroke:none;fill-rule:nonzero;fill:rgb(97.647059%,91.372549%,100%);fill-opacity:1;" d="M 98.105469 189.398438 C 98.652344 189.472656 99.324219 190.878906 99.683594 191.582031 C 99.933594 192.070312 100.074219 192.558594 100.074219 193.1875 C 100.074219 193.816406 99.691406 194.242188 99.683594 194.792969 C 99.65625 196.722656 100.820312 200.242188 99.921875 200.765625 C 99.046875 201.144531 96.734375 198.339844 96.132812 196.597656 C 95.738281 195.453125 97.097656 194.238281 97.421875 193.1875 C 97.578125 192.660156 97.675781 192.109375 97.808594 191.582031 C 97.964844 190.9375 97.714844 189.472656 98.105469 189.398438 Z M 98.105469 189.398438 "/>
</g>
</svg>
