<svg version="1.1" width="61" height="65" viewBox="-1 -1 61 65" xmlns="http://www.w3.org/2000/svg" xmlns:xlink="http://www.w3.org/1999/xlink">
  <!-- Exported by Scratch - http://scratch.mit.edu/ -->
  <path id="ID0.9963257852941751" fill="#FCF7F8" stroke="#000000" stroke-width="2" stroke-linecap="round" d="M 229.950 165.150 C 231.952 163.474 235.270 163.104 238 163.650 C 240.261 164.008 242.748 165.544 243.750 167.650 C 245.441 171.207 244.619 175.415 245.750 179.150 C 245.902 180.118 246.547 181.178 247.500 181.400 C 250.405 182.075 253.502 182.298 256.450 181.900 C 257.428 181.758 258.116 181.268 258.500 180.400 C 260.074 176.286 259.475 171.227 261.950 167.900 C 263.727 165.515 267.248 163.872 270.200 164.400 C 273.428 164.988 277.131 167.633 278 170.900 C 280.196 179.161 278.687 188.405 278.750 197.150 C 278.791 202.896 278.894 209.023 278.250 214.900 C 278.005 217.127 277.416 219.690 275.750 221.400 C 274.111 223.263 271.658 224.919 269 224.900 C 265.740 224.874 261.701 224.126 259.950 221.150 C 257.196 216.446 258.968 210.245 257.950 204.900 C 257.665 203.360 257.470 201.684 256.200 201.150 C 253.368 199.951 250.049 200.133 247 200.500 C 246.065 200.613 245.284 201.513 245 202.600 C 243.863 206.930 244.193 211.831 243 216.400 C 242.419 218.435 241.693 220.839 239.750 222.150 C 237.493 223.643 234.375 223.826 231.700 223.400 C 229.046 223 225.493 222.004 224.700 219.400 C 222.473 212.061 223.467 204.010 223.450 196.400 C 223.433 188.974 223.332 181.395 224.950 174.150 C 225.727 170.685 227.327 167.356 229.950 165.150 Z " transform="matrix(0.9999933242797852, 0.0036575535777956247, -0.0036575535777956247, 0.9999933242797852, -221.25, -162.9)"/>
  <path id="ID0.5929605825804174" fill="none" stroke="#000000" stroke-width="2" stroke-linecap="round" d="M 244.500 191.600 C 244.500 191.600 245.443 193.359 246.400 193.700 C 247.537 194.100 248.970 193.844 250 193.400 C 250.782 193.062 250.857 191.424 251.700 191.500 C 252.731 191.597 252.927 193.239 253.850 193.650 C 254.826 194.090 256.057 194.478 257.100 194.150 C 258.181 193.801 259.500 192 259.500 192 " transform="matrix(0.7074383497238159, 0.0025875107385218143, -0.0025875107385218143, 0.7074383497238159, -147.85, -105.4)"/>
  <path id="ID0.6353398314677179" fill="none" stroke="#000000" stroke-width="2" stroke-linecap="round" d="M 230.200 185.900 C 230.200 185.900 229.791 191.832 230.100 194.800 C 230.131 195.511 230.670 195.572 231.100 195.650 C 232.565 195.915 235.500 195.900 235.500 195.900 " transform="matrix(0.9999933242797852, 0.0036575535777956247, -0.0036575535777956247, 0.9999933242797852, -221.25, -162.9)"/>
  <path id="ID0.35558286122977734" fill="none" stroke="#000000" stroke-width="2" stroke-linecap="round" d="M 269.700 186.800 C 269.700 186.800 266.319 187.864 265.700 189.300 C 264.893 191.151 264.870 193.859 266 195.650 C 266.834 196.955 268.801 197.086 270.200 196.900 C 271.333 196.765 272.222 195.777 272.700 194.800 C 273.139 193.899 273.440 192.495 272.700 191.900 C 271.796 191.057 269.100 191.650 269.100 191.650 " transform="matrix(0.9999933242797852, 0.0036575535777956247, -0.0036575535777956247, 0.9999933242797852, -221.25, -162.9)"/>
  <path id="ID0.04647769080474973" fill="#000000" stroke="none" stroke-linecap="round" d="M 243.650 187.050 C 243.720 187.881 243.332 188.775 242.775 189.400 C 242.560 189.642 241.877 189.422 241.850 189.100 C 241.781 188.312 242.150 187.513 242.700 186.950 C 242.878 186.684 243.614 186.675 243.650 187.050 Z " transform="matrix(1.1875674724578857, -0.5821536779403687, 0.43991735577583313, 0.898038387298584, -348.1, -1.55)"/>
  <path id="ID0.8892239066772163" fill="#000000" stroke="none" stroke-linecap="round" d="M 256.100 188.350 C 256.797 187.980 257.673 187.775 258.450 187.950 C 258.773 188.008 258.982 188.747 258.700 188.900 C 257.949 189.304 256.990 189.354 256.150 189.200 C 255.896 189.153 255.851 188.485 256.100 188.350 Z " transform="matrix(-0.23474565148353577, 0.9720568656921387, -1.5275177955627441, -0.3688860237598419, 386, -154)"/>
  <path id="ID0.2124604694545269" fill="none" stroke="#FCF7F8" stroke-linecap="round" d="M 282.750 195.500 L 283.050 195.800 " transform="matrix(1, 0, 0, 1, -220.25, -162)"/>
</svg>