<?xml version="1.0" encoding="UTF-8"?>
<svg xmlns="http://www.w3.org/2000/svg" xmlns:xlink="http://www.w3.org/1999/xlink" width="300px" height="px" viewBox="0 0 299 236" version="1.1">
<g id="surface1">
<path style=" stroke:none;fill-rule:nonzero;fill:rgb(92.941176%,75.294118%,97.254902%);fill-opacity:1;" d="M 138.128906 107.171875 C 139.417969 89.765625 145.6875 69.238281 160.796875 61.699219 C 179.308594 52.464844 205.820312 53.027344 221.898438 65.652344 C 239.601562 79.390625 247.859375 104.984375 246.539062 126.941406 C 244.957031 153.003906 230.289062 179.375 211.550781 198.808594 C 195.890625 216.371094 170.542969 223.023438 148.476562 232.421875 C 142.960938 234.769531 138.660156 233.449219 133.695312 231.433594 C 117.160156 223.375 98.714844 216.578125 85.402344 202.765625 C 65.691406 182.34375 43.566406 158.324219 39.574219 130.898438 C 36.332031 108.511719 48.054688 82.210938 64.214844 67.628906 C 78.664062 54.59375 103.679688 47.375 121.375 55.765625 C 141.28125 65.214844 151.253906 92.191406 157.839844 111.125 C 159.863281 116.941406 137.640625 113.832031 138.128906 107.171875 Z M 138.128906 107.171875 "/>
<path style="fill-rule:nonzero;fill:rgb(28.627451%,32.156863%,62.745098%);fill-opacity:1;stroke-width:1;stroke-linecap:round;stroke-linejoin:miter;stroke:rgb(28.627451%,32.156863%,62.745098%);stroke-opacity:1;stroke-miterlimit:4;" d="M 316.250995 252.499245 C 316.73797 251.659554 318.734089 251.033244 320.250463 251.250576 C 321.532993 251.432344 322.820345 252.724479 323.001153 254.000809 C 323.189193 255.458906 320.158854 257.003936 320.749493 258.19926 C 321.532993 259.376802 324.076357 258.790007 325.749432 258.750492 C 329.081117 258.673438 332.658701 258.655656 336.000029 258.049104 C 337.769535 257.740888 340.701032 258.430422 343.049123 258.400786 C 344.44737 258.383004 345.645523 257.713228 346.850908 257.849554 C 348.131027 258.007613 349.370164 258.580578 350.250095 259.250355 C 350.780465 259.659333 350.650283 260.700549 351.250565 261.000862 C 352.463183 261.605439 353.921699 261.484919 355.250034 261.749668 C 356.002194 261.9018 357.034004 261.639027 357.499283 262.249531 C 358.52145 263.59106 359.71237 265.379106 359.249502 266.999215 C 358.849314 268.400016 356.858018 268.724037 355.500754 269.249585 C 354.235099 269.739569 352.694617 269.360226 351.498874 270.000366 C 350.254916 270.666191 348.967565 271.667893 348.499875 272.999543 C 347.810395 274.965406 348.572198 277.192067 348.249155 279.25079 C 348.145492 279.912664 347.803163 280.618003 347.251096 280.999322 C 346.619474 281.437936 345.69856 281.179114 344.999436 281.499184 C 343.675923 282.107713 342.137851 282.595721 341.250688 283.749554 C 340.35147 284.919194 340.635941 286.669701 339.999498 287.999375 C 339.69574 288.63754 339.040011 289.044543 338.499998 289.500939 C 337.952753 289.963263 337.595959 290.627112 336.749779 290.749608 C 333.367467 291.243543 329.910422 291.458899 326.499181 291.249471 C 325.648179 291.198101 325.11781 290.484859 324.500652 290.000802 C 322.781773 288.649394 320.800119 287.50544 319.500714 285.750981 C 317.034495 282.404074 314.869623 278.533596 313.249585 274.499131 C 312.239472 271.788413 311.337844 268.862339 311.699459 265.750546 C 312.222597 261.299199 313.886028 256.841925 316.000274 252.999107 Z M 316.250995 252.499245 " transform="matrix(1.620332,0,0,1.977105,-465.982514,-403.002778)"/>
<path style="fill-rule:nonzero;fill:rgb(28.627451%,32.156863%,62.745098%);fill-opacity:1;stroke-width:1;stroke-linecap:round;stroke-linejoin:miter;stroke:rgb(28.627451%,32.156863%,62.745098%);stroke-opacity:1;stroke-miterlimit:4;" d="M 389.000916 231.750003 C 384.678612 231.951529 380.322618 232.787268 376.250021 234.249317 C 374.809253 234.768937 373.877807 236.246792 372.99987 237.499412 C 372.662964 237.981493 372.433076 238.752032 372.750164 239.249919 C 373.150487 239.878205 374.016533 240.127149 374.749799 240.249645 C 376.063732 240.468952 377.447027 239.967114 378.749069 240.249645 C 379.450626 240.401777 380.16011 240.868052 380.50098 241.500289 C 380.816086 242.085109 380.641688 242.849721 380.50098 243.49974 C 380.055075 245.532779 379.008685 247.435418 378.749069 249.500068 C 378.58458 250.831718 379.379282 252.163369 379.250465 253.500946 C 379.123629 254.810863 378.707452 256.138561 377.999949 257.250904 C 377.490627 258.051079 376.438292 258.345465 375.750607 258.999436 C 373.978879 261.020619 373.49532 261.623221 372.750164 262.50045 C 371.685937 263.869639 370.984381 264.983958 369.999426 265.499626 C 369.178962 265.900702 368.027536 265.258586 367.250671 265.750546 C 366.293462 266.355123 364.817022 267.473393 365.249054 268.500778 C 365.81783 269.848234 367.761975 270.500229 369.250306 270.500229 C 370.738638 270.500229 371.977262 269.273293 373.249577 268.500778 C 373.905552 268.101678 374.323712 267.360775 374.999506 266.999215 C 375.605936 266.677169 376.313438 266.499352 376.999141 266.499352 C 379.087957 266.499352 381.164882 266.902403 383.249735 266.999215 C 384.747975 267.070341 386.36116 267.564277 387.750401 266.999215 C 389.224859 266.400565 390.596264 265.199314 391.250258 263.749119 C 392.181704 261.678542 391.416729 259.114029 392.249085 256.999985 C 392.580045 256.16227 393.660126 255.822443 394.500409 255.500397 C 395.857941 254.978801 397.296727 254.500671 398.749386 254.500671 C 400.041519 254.500671 401.303925 255.988405 402.500931 255.500397 C 403.981335 254.897795 404.62542 253.088016 405.499393 251.750438 C 405.889808 251.153764 405.562811 249.93078 406.250495 249.750988 C 407.560465 249.405233 409.371829 249.468457 410.249766 250.499794 C 411.599371 252.084339 411.068249 254.638973 411.999694 256.500122 C 412.685397 257.873263 413.575225 259.430147 415.000138 259.999161 C 415.77304 260.309352 416.914556 259.327409 416.999774 258.499573 C 417.201917 256.551491 416.369561 254.609337 415.749258 252.750164 C 415.031847 250.592654 414.138056 248.468731 413.000503 246.500892 C 411.262465 243.576794 409.837552 241.12885 407.750717 239.000976 C 406.034479 237.155633 403.713792 235.90894 401.74983 234.749179 C 401.137454 234.39157 400.416079 234.249317 399.750194 234.000373 C 399.08431 233.749454 398.473916 233.401723 397.750559 233.249591 C 394.855151 232.643039 391.953797 231.613677 389.000916 231.750003 Z M 389.000916 231.750003 " transform="matrix(1.971063,0,0,1.977105,-577.413115,-403.002778)"/>
<path style="fill-rule:nonzero;fill:rgb(28.627451%,32.156863%,62.745098%);fill-opacity:1;stroke-width:1;stroke-linecap:round;stroke-linejoin:miter;stroke:rgb(28.627451%,32.156863%,62.745098%);stroke-opacity:1;stroke-miterlimit:4;" d="M 401.500166 294.499917 C 401.32775 293.936831 397.625749 295.428516 395.499279 296.750287 C 394.084274 297.416112 393.713678 299.623016 392.249128 300.249326 C 390.205893 301.116677 388.057623 301.442674 386.099606 301.049502 C 383.887918 300.61879 382.373823 297.759891 380.350406 297.900169 C 378.023774 298.072059 376.030084 300.367871 374.500135 301.75089 C 373.669762 302.48389 373.737143 303.882716 372.999914 304.700673 C 370.990369 306.595409 367.918581 307.504251 366.400523 309.750669 C 365.821837 310.610117 367.320077 311.682945 367.250714 312.749845 C 367.151624 314.360075 364.834901 317.552874 366.249906 317.499529 C 369.751745 317.361227 373.418073 314.328463 376.999184 312.749845 C 381.151053 310.920308 385.503084 309.772402 389.250666 307.500299 C 392.994285 305.143239 396.204799 301.984028 399.250824 299.000657 C 400.570702 297.706546 403.35513 294.928653 402.500975 294.499917 Z M 401.500166 294.499917 " transform="matrix(1.971063,0,0,1.977105,-574.553825,-394.972222)"/>
<path style=" stroke:none;fill-rule:nonzero;fill:rgb(28.627451%,32.156863%,62.745098%);fill-opacity:1;" d="M 51.847656 125.378906 C 54.503906 127.003906 58.328125 126.789062 60.558594 129.070312 C 62.789062 131.351562 64.167969 134.503906 64.167969 137.984375 C 64.167969 141.460938 62.789062 144.613281 60.558594 146.894531 C 58.328125 149.175781 53.652344 148.0625 51.847656 150.585938 C 50.136719 153.046875 53.980469 161.984375 52.339844 160.472656 C 47.824219 155.683594 41.363281 145.949219 39.53125 137.984375 C 37.800781 130.34375 37.75 118.839844 41.5 114.503906 C 43.90625 112.542969 48.089844 122.960938 51.847656 125.378906 Z M 51.847656 125.378906 "/>
<path style=" stroke:none;fill-rule:nonzero;fill:rgb(18.823529%,22.745098%,40.784314%);fill-opacity:1;" d="M 69.703125 115.902344 C 78.015625 118.605469 89.371094 117.554688 93.769531 124.179688 C 98.121094 130.699219 91.238281 140.238281 89.644531 147.632812 C 88.472656 153.3125 87.140625 159.605469 83.09375 163.726562 C 79.050781 167.847656 73.460938 170.398438 67.296875 170.398438 C 61.128906 170.398438 54.734375 168.4375 51.496094 163.726562 C 44.445312 153.414062 38.667969 140.140625 39.03125 127.355469 C 39.214844 121.03125 46.195312 115.847656 52.097656 114.246094 C 58.265625 112.65625 64.039062 115.273438 69.703125 115.902344 Z M 69.703125 115.902344 "/>
<path style=" stroke:none;fill-rule:nonzero;fill:rgb(18.823529%,22.745098%,40.784314%);fill-opacity:1;" d="M 186.5625 52.816406 C 194.15625 52.363281 202.382812 53.546875 209.144531 56.121094 C 216.285156 58.847656 223.410156 62.855469 228.371094 68.679688 C 234.433594 75.789062 240.066406 88.339844 242.125 93.097656 C 242.726562 95.71875 237.71875 86.304688 234.285156 84.546875 C 230.640625 82.6875 226.527344 82.085938 222.597656 82.476562 C 218.644531 82.867188 215.578125 86.203125 211.867188 86.613281 C 208.863281 86.925781 206.070312 85.277344 203.339844 84.546875 C 198.226562 83.160156 191.8125 84.523438 187.9375 80.40625 C 183.289062 75.441406 186.707031 65.554688 182.023438 60.816406 C 178.332031 57.082031 165.476562 59.878906 166.480469 58.332031 C 167.175781 56.882812 179.339844 53.257812 186.5625 52.816406 Z M 186.5625 52.816406 "/>
<path style=" stroke:none;fill-rule:nonzero;fill:rgb(18.823529%,22.745098%,40.784314%);fill-opacity:1;" d="M 154.101562 224.847656 C 159.414062 221.128906 159.757812 212.054688 165.519531 209.949219 C 175.804688 206.121094 187.535156 207.011719 198.113281 208.570312 C 200.757812 208.957031 197.621094 211.511719 193.988281 213.535156 C 179.261719 221.546875 164.386719 229.539062 148.601562 235.195312 C 144.65625 236.609375 141.640625 234.730469 138.425781 233.125 C 137.738281 232.628906 138.621094 231.046875 138.972656 230.023438 C 139.488281 228.59375 140.339844 226.878906 141.796875 226.367188 C 145.703125 224.996094 150.71875 227.214844 154.101562 224.847656 Z M 154.101562 224.847656 "/>
<path style="fill:none;stroke-width:3;stroke-linecap:round;stroke-linejoin:miter;stroke:rgb(100%,93.333333%,93.72549%);stroke-opacity:1;stroke-miterlimit:4;" d="M 145.199603 115.74972 C 145.199603 115.74972 140.83855 117.922874 140.449449 119.750589 C 140.004965 121.92799 143.194456 124.075661 142.749972 125.999646 C 141.96609 129.275658 135.820002 131.7716 137.250018 134.499722 C 139.023693 137.846521 145.5177 139.368437 149.749526 138.149488 C 154.107739 136.831438 155.189837 130.227032 159.249834 128.00008 C 162.56003 126.187939 166.700972 125.553689 170.200039 126.44985 C 173.97744 127.439449 175.914424 132.366208 179.500116 133.249627 C 182.265003 133.927765 185.691646 132.96648 187.749336 131.000024 C 191.643184 127.282302 191.295266 119.351352 196.24991 117.2504 C 201.329522 115.095651 207.005565 119.995511 212.499839 120.499513 C 215.256206 120.75293 218.733972 121.395674 220.75048 119.500004 C 224.88006 115.616641 225.506314 109.006572 229.249634 104.749455 C 230.185464 103.684822 232.140908 105.403525 233.499921 105.00004 C 235.36164 104.446488 237.97458 103.868868 238.500008 102.000097 C 239.014075 100.170966 237.643702 97.168191 235.749321 96.999719 C 232.633674 96.72365 230.290549 100.265821 227.250167 101.000587 C 224.951064 101.552724 220.000679 100.700452 220.000679 100.700452 " transform="matrix(2.750733,0,0,2.759166,-361.65929,-182.818056)"/>
<path style="fill:none;stroke-width:3;stroke-linecap:round;stroke-linejoin:miter;stroke:rgb(100%,93.333333%,93.72549%);stroke-opacity:1;stroke-miterlimit:4;" d="M 147.20049 121.500438 C 147.20049 121.500438 145.205283 122.441902 144.100464 122.600465 C 141.112625 123.019522 137.46587 121.197471 135.100023 122.999702 C 133.437114 124.197414 133.525159 128.614509 135.500485 128.999589 C 141.196409 130.110942 147.072683 125.294609 152.750146 126.4994 C 157.277348 127.462101 159.55657 133.038683 163.750054 134.999477 C 166.243707 136.166043 169.261368 135.766805 172.000695 135.500647 C 172.828599 135.418534 173.59544 134.727655 174.000162 133.999967 C 175.306631 131.648431 175.398936 128.661229 176.999362 126.4994 C 178.827 124.033189 180.930132 120.499513 184.000336 120.499513 C 190.475882 120.499513 196.132044 125.318677 202.499664 126.4994 C 204.446588 126.860413 207.025446 126.554614 208.249552 125.000136 C 210.795748 121.770844 209.841457 116.408037 212.749772 113.500117 C 215.207923 111.0424 219.286381 110.794646 222.749946 110.500173 C 224.429896 110.358599 225.81447 112.282584 227.5001 112.250022 C 230.326051 112.196224 234.278122 112.663417 235.749321 110.249588 C 237.22194 107.835759 233.967126 104.81741 233.749854 102.000097 C 233.545363 99.331435 235.408503 96.516953 234.499654 93.999775 C 234.033869 92.708624 231.814291 92.602444 230.4993 93.000266 C 227.957365 93.76901 225.761927 95.516028 223.74968 97.250304 C 223.229932 97.697676 223.536668 98.626399 223.249813 99.249323 C 222.240139 101.452207 219.749326 105.699414 219.749326 105.699414 " transform="matrix(2.750733,0,0,2.759166,-361.65929,-182.818056)"/>
<path style=" stroke:none;fill-rule:nonzero;fill:rgb(18.823529%,22.745098%,40.784314%);fill-opacity:1;" d="M 47.355469 126.039062 C 49.875 126.039062 52.164062 126.992188 53.820312 128.527344 C 55.472656 130.0625 56.5 132.183594 56.5 134.523438 C 56.5 136.863281 54.472656 138.441406 53.820312 140.523438 C 52.066406 146.253906 52.746094 158.238281 49.621094 158.597656 C 46.375 158.875 43.308594 148.777344 41.09375 143.421875 C 39.699219 140.023438 38.945312 136.738281 38.894531 133.492188 C 38.871094 131.558594 39.703125 129.476562 40.886719 128.527344 C 42.710938 127.128906 44.832031 126.039062 47.355469 126.039062 Z M 47.355469 126.039062 "/>
<path style=" stroke:none;fill-rule:nonzero;fill:rgb(28.627451%,32.156863%,62.745098%);fill-opacity:1;" d="M 239.03125 91.027344 C 239.886719 91.027344 240.738281 91.460938 241.21875 92.445312 C 243 96.167969 244.867188 101.089844 245.703125 105.652344 C 246.320312 109.058594 247.730469 115.425781 245.703125 117.515625 C 244.167969 118.851562 239.820312 114.980469 238.550781 112.550781 C 236.488281 108.636719 237.488281 103.242188 236.84375 99.269531 C 236.636719 98.121094 235.9375 97.191406 235.9375 95.859375 C 235.9375 94.523438 236.285156 93.320312 236.84375 92.445312 C 237.402344 91.570312 238.179688 91.027344 239.03125 91.027344 Z M 239.03125 91.027344 "/>
<path style="fill:none;stroke-width:2;stroke-linecap:round;stroke-linejoin:miter;stroke:rgb(100%,93.333333%,93.72549%);stroke-opacity:1;stroke-miterlimit:4;" d="M 142.000172 128.999589 L 142.999905 137.499666 " transform="matrix(2.750733,0,0,2.759166,-361.65929,-182.818056)"/>
<path style="fill:none;stroke-width:2;stroke-linecap:round;stroke-linejoin:miter;stroke:rgb(100%,93.333333%,93.72549%);stroke-opacity:1;stroke-miterlimit:4;" d="M 146.000526 127.24974 L 147.750059 138.500591 " transform="matrix(2.750733,0,0,2.759166,-361.65929,-182.818056)"/>
<path style="fill:none;stroke-width:2;stroke-linecap:round;stroke-linejoin:miter;stroke:rgb(100%,93.333333%,93.72549%);stroke-opacity:1;stroke-miterlimit:4;" d="M 149.999459 126.4994 L 152.25028 136.500156 " transform="matrix(2.750733,0,0,2.759166,-361.65929,-182.818056)"/>
<path style="fill:none;stroke-width:2;stroke-linecap:round;stroke-linejoin:miter;stroke:rgb(100%,93.333333%,93.72549%);stroke-opacity:1;stroke-miterlimit:4;" d="M 134.499331 125.249306 L 142.250105 126.749986 " transform="matrix(2.750733,0,0,2.759166,-361.65929,-182.818056)"/>
<path style="fill:none;stroke-width:2;stroke-linecap:round;stroke-linejoin:miter;stroke:rgb(100%,93.333333%,93.72549%);stroke-opacity:1;stroke-miterlimit:4;" d="M 163.000254 127.000571 L 162.750321 133.999967 " transform="matrix(2.750733,0,0,2.759166,-361.65929,-182.818056)"/>
<path style="fill:none;stroke-width:2;stroke-linecap:round;stroke-linejoin:miter;stroke:rgb(100%,93.333333%,93.72549%);stroke-opacity:1;stroke-miterlimit:4;" d="M 167.000608 126.4994 L 167.500474 134.750307 " transform="matrix(2.750733,0,0,2.759166,-361.65929,-182.818056)"/>
<path style="fill:none;stroke-width:2;stroke-linecap:round;stroke-linejoin:miter;stroke:rgb(100%,93.333333%,93.72549%);stroke-opacity:1;stroke-miterlimit:4;" d="M 170.499675 126.250231 L 171.499408 134.750307 " transform="matrix(2.750733,0,0,2.759166,-361.65929,-182.818056)"/>
<path style="fill:none;stroke-width:2;stroke-linecap:round;stroke-linejoin:miter;stroke:rgb(100%,93.333333%,93.72549%);stroke-opacity:1;stroke-miterlimit:4;" d="M 178.500382 124.500382 L 181.749516 132.500703 " transform="matrix(2.750733,0,0,2.759166,-361.65929,-182.818056)"/>
<path style="fill:none;stroke-width:2;stroke-linecap:round;stroke-linejoin:miter;stroke:rgb(100%,93.333333%,93.72549%);stroke-opacity:1;stroke-miterlimit:4;" d="M 181.499582 121.500438 L 185.499936 131.250609 " transform="matrix(2.750733,0,0,2.759166,-361.65929,-182.818056)"/>
<path style="fill:none;stroke-width:2;stroke-linecap:round;stroke-linejoin:miter;stroke:rgb(100%,93.333333%,93.72549%);stroke-opacity:1;stroke-miterlimit:4;" d="M 185.749869 121.000684 L 189.000423 128.00008 " transform="matrix(2.750733,0,0,2.759166,-361.65929,-182.818056)"/>
<path style="fill:none;stroke-width:2;stroke-linecap:round;stroke-linejoin:miter;stroke:rgb(100%,93.333333%,93.72549%);stroke-opacity:1;stroke-miterlimit:4;" d="M 197.749511 116.750645 L 197.499577 124.000627 " transform="matrix(2.750733,0,0,2.759166,-361.65929,-182.818056)"/>
<path style="fill:none;stroke-width:2;stroke-linecap:round;stroke-linejoin:miter;stroke:rgb(100%,93.333333%,93.72549%);stroke-opacity:1;stroke-miterlimit:4;" d="M 201.999798 117.999324 L 201.249998 124.500382 " transform="matrix(2.750733,0,0,2.759166,-361.65929,-182.818056)"/>
<path style="fill:none;stroke-width:2;stroke-linecap:round;stroke-linejoin:miter;stroke:rgb(100%,93.333333%,93.72549%);stroke-opacity:1;stroke-miterlimit:4;" d="M 205.250351 119.000249 L 204.750485 125.499891 " transform="matrix(2.750733,0,0,2.759166,-361.65929,-182.818056)"/>
<path style="fill:none;stroke-width:2;stroke-linecap:round;stroke-linejoin:miter;stroke:rgb(100%,93.333333%,93.72549%);stroke-opacity:1;stroke-miterlimit:4;" d="M 213.499572 113.500117 L 216.500192 120.250344 " transform="matrix(2.750733,0,0,2.759166,-361.65929,-182.818056)"/>
<path style="fill:none;stroke-width:2;stroke-linecap:round;stroke-linejoin:miter;stroke:rgb(100%,93.333333%,93.72549%);stroke-opacity:1;stroke-miterlimit:4;" d="M 217.000059 111.499682 L 220.500546 119.249419 " transform="matrix(2.750733,0,0,2.759166,-361.65929,-182.818056)"/>
<path style="fill:none;stroke-width:2;stroke-linecap:round;stroke-linejoin:miter;stroke:rgb(100%,93.333333%,93.72549%);stroke-opacity:1;stroke-miterlimit:4;" d="M 220.500546 110.500173 L 222.99988 116.750645 " transform="matrix(2.750733,0,0,2.759166,-361.65929,-182.818056)"/>
<path style="fill:none;stroke-width:2;stroke-linecap:round;stroke-linejoin:miter;stroke:rgb(100%,93.333333%,93.72549%);stroke-opacity:1;stroke-miterlimit:4;" d="M 228.749767 106.250135 L 232.500187 110.249588 " transform="matrix(2.750733,0,0,2.759166,-361.65929,-182.818056)"/>
<path style="fill:none;stroke-width:2;stroke-linecap:round;stroke-linejoin:miter;stroke:rgb(100%,93.333333%,93.72549%);stroke-opacity:1;stroke-miterlimit:4;" d="M 234.999521 100.499417 L 238.749941 100.750002 Z M 234.999521 100.499417 " transform="matrix(2.750733,0,0,2.759166,-361.65929,-182.818056)"/>
<path style="fill:none;stroke-width:2;stroke-linecap:round;stroke-linejoin:miter;stroke:rgb(100%,93.333333%,93.72549%);stroke-opacity:1;stroke-miterlimit:4;" d="M 226.0005 95.500455 L 228.2499 99.249323 " transform="matrix(2.750733,0,0,2.759166,-361.65929,-182.818056)"/>
<path style="fill:none;stroke-width:2;stroke-linecap:round;stroke-linejoin:miter;stroke:rgb(100%,93.333333%,93.72549%);stroke-opacity:1;stroke-miterlimit:4;" d="M 229.7495 93.500021 L 232.250254 99.000153 " transform="matrix(2.750733,0,0,2.759166,-361.65929,-182.818056)"/>
<path style="fill:none;stroke-width:2;stroke-linecap:round;stroke-linejoin:miter;stroke:rgb(100%,93.333333%,93.72549%);stroke-opacity:1;stroke-miterlimit:4;" d="M 142.250105 118.249909 L 144.749439 122.249362 " transform="matrix(2.750733,0,0,2.759166,-361.65929,-182.818056)"/>
<path style=" stroke:none;fill-rule:nonzero;fill:rgb(100%,93.333333%,93.72549%);fill-opacity:1;" d="M 136.921875 1.628906 L 154.203125 1.628906 L 154.203125 52.671875 L 136.921875 52.671875 Z M 136.921875 1.628906 "/>
<path style=" stroke:none;fill-rule:nonzero;fill:rgb(100%,93.333333%,93.72549%);fill-opacity:1;" d="M 121.675781 19.355469 L 170.640625 19.355469 L 170.640625 34.761719 L 121.675781 34.761719 Z M 121.675781 19.355469 "/>
<path style="fill-rule:nonzero;fill:rgb(92.54902%,81.176471%,96.862745%);fill-opacity:1;stroke-width:2;stroke-linecap:round;stroke-linejoin:miter;stroke:rgb(92.54902%,81.176471%,96.862745%);stroke-opacity:1;stroke-miterlimit:4;" d="M 172.250628 88.250473 C 171.012322 88.550609 168.994394 88.625643 167.000608 88.750228 C 166.314711 88.7927 165.658636 89.057442 164.999721 89.249982 C 163.660589 89.640725 162.300157 89.990412 160.999367 90.500077 C 160.374534 90.744999 159.850526 91.19945 159.249834 91.499586 C 158.517074 91.867677 157.626687 91.96961 157.000433 92.500511 C 156.487786 92.933726 156.172529 93.600538 156.0007 94.25036 C 155.827451 94.89452 155.334684 96.249379 156.0007 96.249379 C 158.027148 96.249379 159.820704 94.871868 161.750587 94.25036 C 162.402402 94.039416 163.241667 93.368357 163.750054 93.750606 C 164.2414 94.118697 163.626507 95.095554 163.750054 95.749624 C 163.880701 96.448998 163.924723 97.332417 164.499854 97.750059 C 165.039483 98.142217 165.971053 98.173364 166.499321 97.750059 C 168.616654 96.056839 170.275303 91.196619 172.000695 91.750171 C 173.77579 92.320713 172.46364 97.407451 173.500295 99.999662 C 173.758749 100.648069 174.819545 100.584361 175.499762 100.499417 C 176.239621 100.407394 176.755109 99.499908 177.500649 99.499908 C 178.170925 99.499908 178.8412 99.968516 179.250182 100.499417 C 179.731588 101.126588 179.483075 102.152996 179.999982 102.750437 C 180.636176 103.483788 181.699813 104.517275 182.499316 104.249701 C 183.199413 104.01752 183.000603 102.598953 183.000603 101.749512 C 183.000603 100.901486 182.899777 99.999662 182.499316 99.249323 C 181.543605 97.457001 180.289678 95.820411 179.000249 94.25036 C 177.618515 92.565635 176.106134 90.971517 174.500028 89.500568 C 174.088206 89.122566 173.555678 88.805441 173.000428 88.750228 Z M 172.250628 88.250473 " transform="matrix(2.750733,0,0,2.759166,-361.65929,-182.818056)"/>
</g>
</svg>
